<mxfile host="65bd71144e">
    <diagram id="TRXWnJko7WDl1GkMKW_n" name="第 1 页">
        <mxGraphModel dx="1649" dy="1089" grid="1" gridSize="10" guides="1" tooltips="1" connect="1" arrows="1" fold="1" page="1" pageScale="1" pageWidth="827" pageHeight="1169" math="0" shadow="0">
            <root>
                <mxCell id="0"/>
                <mxCell id="1" parent="0"/>
                <mxCell id="54" value="Window Title" style="strokeWidth=1;shadow=0;dashed=0;align=center;html=1;shape=mxgraph.mockup.containers.window;align=left;verticalAlign=top;spacingLeft=8;strokeColor2=#008cff;strokeColor3=#c4c4c4;fontColor=default;mainText=;fontSize=17;labelBackgroundColor=none;" parent="1" vertex="1">
                    <mxGeometry x="1341" y="880" width="889" height="790" as="geometry"/>
                </mxCell>
                <mxCell id="2" value="Window Title" style="strokeWidth=1;shadow=0;dashed=0;align=center;html=1;shape=mxgraph.mockup.containers.window;align=left;verticalAlign=top;spacingLeft=8;strokeColor2=#008cff;strokeColor3=#c4c4c4;fontColor=#666666;mainText=;fontSize=17;labelBackgroundColor=none;" parent="1" vertex="1">
                    <mxGeometry x="139" y="170" width="801" height="560" as="geometry"/>
                </mxCell>
                <mxCell id="3" value="" style="strokeWidth=1;shadow=0;dashed=0;align=center;html=1;shape=mxgraph.mockup.containers.rrect;rSize=0;strokeColor=#666666;" parent="1" vertex="1">
                    <mxGeometry x="140" y="200" width="120" height="530" as="geometry"/>
                </mxCell>
                <mxCell id="8" value="" style="verticalLabelPosition=bottom;shadow=0;dashed=0;align=center;html=1;verticalAlign=top;strokeWidth=1;shape=mxgraph.mockup.graphics.simpleIcon;strokeColor=#999999;" parent="3" vertex="1">
                    <mxGeometry x="35" y="20" width="50" height="50" as="geometry"/>
                </mxCell>
                <mxCell id="12" value="" style="group" parent="3" vertex="1" connectable="0">
                    <mxGeometry y="100" width="120" height="80" as="geometry"/>
                </mxCell>
                <mxCell id="4" value="&lt;br&gt;&lt;br&gt;Group 1" style="strokeColor=inherit;fillColor=inherit;gradientColor=inherit;strokeWidth=1;shadow=0;dashed=0;align=center;html=1;shape=mxgraph.mockup.containers.rrect;rSize=0;fontSize=17;fontColor=#666666;fontStyle=1;resizeWidth=1;" parent="12" vertex="1">
                    <mxGeometry width="120" height="80" relative="1" as="geometry">
                        <mxPoint as="offset"/>
                    </mxGeometry>
                </mxCell>
                <mxCell id="10" value="" style="verticalLabelPosition=bottom;shadow=0;dashed=0;align=center;html=1;verticalAlign=top;strokeWidth=1;shape=mxgraph.mockup.graphics.simpleIcon;strokeColor=#999999;" parent="12" vertex="1">
                    <mxGeometry x="47.5" y="20" width="25" height="20" as="geometry"/>
                </mxCell>
                <mxCell id="13" value="" style="group" parent="3" vertex="1" connectable="0">
                    <mxGeometry y="180" width="120" height="80" as="geometry"/>
                </mxCell>
                <mxCell id="14" value="&lt;br&gt;&lt;br&gt;Group 1" style="strokeColor=inherit;fillColor=inherit;gradientColor=inherit;strokeWidth=1;shadow=0;dashed=0;align=center;html=1;shape=mxgraph.mockup.containers.rrect;rSize=0;fontSize=17;fontColor=#666666;fontStyle=1;resizeWidth=1;" parent="13" vertex="1">
                    <mxGeometry width="120" height="80" relative="1" as="geometry">
                        <mxPoint as="offset"/>
                    </mxGeometry>
                </mxCell>
                <mxCell id="15" value="" style="verticalLabelPosition=bottom;shadow=0;dashed=0;align=center;html=1;verticalAlign=top;strokeWidth=1;shape=mxgraph.mockup.graphics.simpleIcon;strokeColor=#999999;" parent="13" vertex="1">
                    <mxGeometry x="47.5" y="20" width="25" height="20" as="geometry"/>
                </mxCell>
                <mxCell id="16" value="" style="group" parent="3" vertex="1" connectable="0">
                    <mxGeometry y="270" width="120" height="80" as="geometry"/>
                </mxCell>
                <mxCell id="17" value="&lt;br&gt;&lt;br&gt;Group 1" style="strokeColor=inherit;fillColor=inherit;gradientColor=inherit;strokeWidth=1;shadow=0;dashed=0;align=center;html=1;shape=mxgraph.mockup.containers.rrect;rSize=0;fontSize=17;fontColor=#666666;fontStyle=1;resizeWidth=1;" parent="16" vertex="1">
                    <mxGeometry width="120" height="80" relative="1" as="geometry">
                        <mxPoint as="offset"/>
                    </mxGeometry>
                </mxCell>
                <mxCell id="18" value="" style="verticalLabelPosition=bottom;shadow=0;dashed=0;align=center;html=1;verticalAlign=top;strokeWidth=1;shape=mxgraph.mockup.graphics.simpleIcon;strokeColor=#999999;" parent="16" vertex="1">
                    <mxGeometry x="47.5" y="20" width="25" height="20" as="geometry"/>
                </mxCell>
                <mxCell id="20" value="" style="rounded=0;whiteSpace=wrap;html=1;" parent="1" vertex="1">
                    <mxGeometry x="260" y="200" width="680" height="50" as="geometry"/>
                </mxCell>
                <mxCell id="19" value="Search" style="strokeWidth=1;shadow=0;dashed=0;align=center;html=1;shape=mxgraph.mockup.forms.searchBox;strokeColor=#999999;mainText=;strokeColor2=#008cff;fontColor=#666666;fontSize=17;align=left;spacingLeft=3;" parent="1" vertex="1">
                    <mxGeometry x="290" y="210" width="150" height="30" as="geometry"/>
                </mxCell>
                <mxCell id="21" value="" style="verticalLabelPosition=bottom;shadow=0;dashed=0;align=center;html=1;verticalAlign=top;strokeWidth=1;shape=mxgraph.mockup.containers.userMale;strokeColor=#666666;strokeColor2=#008cff;" parent="1" vertex="1">
                    <mxGeometry x="890" y="210" width="33" height="30" as="geometry"/>
                </mxCell>
                <mxCell id="22" value="Window Title" style="strokeWidth=1;shadow=0;dashed=0;align=center;html=1;shape=mxgraph.mockup.containers.window;align=left;verticalAlign=top;spacingLeft=8;strokeColor2=#008cff;strokeColor3=#c4c4c4;fontColor=default;mainText=;fontSize=17;labelBackgroundColor=none;" parent="1" vertex="1">
                    <mxGeometry x="1340" y="170" width="870" height="560" as="geometry"/>
                </mxCell>
                <mxCell id="23" value="" style="strokeWidth=1;shadow=0;dashed=0;align=center;html=1;shape=mxgraph.mockup.containers.rrect;rSize=0;strokeColor=#666666;fontColor=default;" parent="1" vertex="1">
                    <mxGeometry x="1341" y="200" width="120" height="530" as="geometry"/>
                </mxCell>
                <mxCell id="24" value="" style="verticalLabelPosition=bottom;shadow=0;dashed=0;align=center;html=1;verticalAlign=top;strokeWidth=1;shape=mxgraph.mockup.graphics.simpleIcon;strokeColor=#999999;fontColor=default;" parent="23" vertex="1">
                    <mxGeometry x="35" y="20.001739130434782" width="50" height="41.44753623188406" as="geometry"/>
                </mxCell>
                <mxCell id="25" value="" style="group;fontColor=default;" parent="23" vertex="1" connectable="0">
                    <mxGeometry y="100.00101449275361" width="120" height="61.303333333333335" as="geometry"/>
                </mxCell>
                <mxCell id="26" value="&lt;br&gt;&lt;br&gt;Group 1" style="strokeColor=inherit;fillColor=inherit;gradientColor=inherit;strokeWidth=1;shadow=0;dashed=0;align=center;html=1;shape=mxgraph.mockup.containers.rrect;rSize=0;fontSize=17;fontColor=default;fontStyle=1;resizeWidth=1;" parent="25" vertex="1">
                    <mxGeometry width="120" height="80" relative="1" as="geometry">
                        <mxPoint as="offset"/>
                    </mxGeometry>
                </mxCell>
                <mxCell id="27" value="" style="verticalLabelPosition=bottom;shadow=0;dashed=0;align=center;html=1;verticalAlign=top;strokeWidth=1;shape=mxgraph.mockup.graphics.simpleIcon;strokeColor=#999999;fontColor=default;" parent="25" vertex="1">
                    <mxGeometry x="47.5" y="15.325833333333334" width="25" height="15.325833333333334" as="geometry"/>
                </mxCell>
                <mxCell id="31" value="" style="group;fontColor=default;" parent="23" vertex="1" connectable="0">
                    <mxGeometry y="230.43478260869566" width="120" height="61.449275362318836" as="geometry"/>
                </mxCell>
                <mxCell id="32" value="&lt;br&gt;&lt;br&gt;Group 1" style="strokeColor=inherit;fillColor=inherit;gradientColor=inherit;strokeWidth=1;shadow=0;dashed=0;align=center;html=1;shape=mxgraph.mockup.containers.rrect;rSize=0;fontSize=17;fontColor=default;fontStyle=1;resizeWidth=1;" parent="31" vertex="1">
                    <mxGeometry width="120" height="80" relative="1" as="geometry">
                        <mxPoint as="offset"/>
                    </mxGeometry>
                </mxCell>
                <mxCell id="33" value="" style="verticalLabelPosition=bottom;shadow=0;dashed=0;align=center;html=1;verticalAlign=top;strokeWidth=1;shape=mxgraph.mockup.graphics.simpleIcon;strokeColor=#999999;fontColor=default;" parent="31" vertex="1">
                    <mxGeometry x="47.5" y="15.362318840579709" width="25" height="15.362318840579709" as="geometry"/>
                </mxCell>
                <mxCell id="28" value="" style="group;fontColor=default;" parent="23" vertex="1" connectable="0">
                    <mxGeometry y="168.9855072463768" width="120" height="65.7968115942029" as="geometry"/>
                </mxCell>
                <mxCell id="29" value="&lt;br&gt;&lt;br&gt;Group 1" style="strokeColor=inherit;fillColor=inherit;gradientColor=inherit;strokeWidth=1;shadow=0;dashed=0;align=center;html=1;shape=mxgraph.mockup.containers.rrect;rSize=0;fontSize=17;fontColor=default;fontStyle=1;resizeWidth=1;" parent="28" vertex="1">
                    <mxGeometry width="120" height="80" relative="1" as="geometry">
                        <mxPoint as="offset"/>
                    </mxGeometry>
                </mxCell>
                <mxCell id="30" value="" style="verticalLabelPosition=bottom;shadow=0;dashed=0;align=center;html=1;verticalAlign=top;strokeWidth=1;shape=mxgraph.mockup.graphics.simpleIcon;strokeColor=#999999;fontColor=default;" parent="28" vertex="1">
                    <mxGeometry x="47.5" y="16.449202898550723" width="25" height="16.449202898550723" as="geometry"/>
                </mxCell>
                <mxCell id="34" value="" style="rounded=0;whiteSpace=wrap;html=1;fontColor=default;" parent="1" vertex="1">
                    <mxGeometry x="1461" y="200" width="749" height="50" as="geometry"/>
                </mxCell>
                <mxCell id="35" value="Search" style="strokeWidth=1;shadow=0;dashed=0;align=center;html=1;shape=mxgraph.mockup.forms.searchBox;strokeColor=#999999;mainText=;strokeColor2=#008cff;fontColor=default;fontSize=17;align=left;spacingLeft=3;" parent="1" vertex="1">
                    <mxGeometry x="1491" y="210" width="249" height="30" as="geometry"/>
                </mxCell>
                <mxCell id="36" value="" style="verticalLabelPosition=bottom;shadow=0;dashed=0;align=center;html=1;verticalAlign=top;strokeWidth=1;shape=mxgraph.mockup.containers.userMale;strokeColor=#666666;strokeColor2=#008cff;fontColor=default;" parent="1" vertex="1">
                    <mxGeometry x="2130" y="210" width="33" height="30" as="geometry"/>
                </mxCell>
                <mxCell id="39" value="&lt;h1&gt;仓库列表&lt;/h1&gt;" style="text;html=1;strokeColor=none;fillColor=none;spacing=5;spacingTop=-20;whiteSpace=wrap;overflow=hidden;rounded=0;fontColor=default;" parent="1" vertex="1">
                    <mxGeometry x="1330" y="120" width="190" height="40" as="geometry"/>
                </mxCell>
                <mxCell id="40" value="molizz/growerlab" style="shape=rectangle;strokeColor=none;fillColor=none;linkText=;fontSize=17;fontColor=default;fontStyle=4;html=1;align=left;" parent="1" vertex="1">
                    <mxGeometry x="1504" y="300" width="150" height="30" as="geometry"/>
                </mxCell>
                <mxCell id="42" value="" style="endArrow=none;html=1;fontColor=default;textOpacity=60;strokeColor=#969696;opacity=60;" parent="1" edge="1">
                    <mxGeometry width="50" height="50" relative="1" as="geometry">
                        <mxPoint x="2170" y="390" as="sourcePoint"/>
                        <mxPoint x="1504" y="390" as="targetPoint"/>
                    </mxGeometry>
                </mxCell>
                <mxCell id="44" value="Updated 2 days ago" style="text;html=1;strokeColor=none;fillColor=none;align=left;verticalAlign=middle;whiteSpace=wrap;rounded=0;fontColor=default;" parent="1" vertex="1">
                    <mxGeometry x="1504" y="340" width="146" height="30" as="geometry"/>
                </mxCell>
                <mxCell id="49" value="" style="group;fontColor=default;" parent="1" vertex="1" connectable="0">
                    <mxGeometry x="1646" y="305" width="50" height="20" as="geometry"/>
                </mxCell>
                <mxCell id="76" value="" style="group;fontColor=default;" parent="49" vertex="1" connectable="0">
                    <mxGeometry width="50" height="20" as="geometry"/>
                </mxCell>
                <mxCell id="48" value="" style="rounded=1;whiteSpace=wrap;html=1;fontColor=default;" parent="76" vertex="1">
                    <mxGeometry width="50" height="20" as="geometry"/>
                </mxCell>
                <mxCell id="46" value="Public" style="text;html=1;strokeColor=none;fillColor=none;align=center;verticalAlign=middle;whiteSpace=wrap;rounded=0;fontColor=default;" parent="76" vertex="1">
                    <mxGeometry x="15" y="7.5" width="20" height="5" as="geometry"/>
                </mxCell>
                <mxCell id="51" value="tom/blog" style="shape=rectangle;strokeColor=none;fillColor=none;linkText=;fontSize=17;fontColor=default;fontStyle=4;html=1;align=left;" parent="1" vertex="1">
                    <mxGeometry x="1504" y="410" width="150" height="30" as="geometry"/>
                </mxCell>
                <mxCell id="52" value="" style="endArrow=none;html=1;fontColor=default;textOpacity=60;strokeColor=#969696;opacity=60;" parent="1" edge="1">
                    <mxGeometry width="50" height="50" relative="1" as="geometry">
                        <mxPoint x="2160" y="500" as="sourcePoint"/>
                        <mxPoint x="1504" y="500" as="targetPoint"/>
                    </mxGeometry>
                </mxCell>
                <mxCell id="53" value="Updated 2 days ago" style="text;html=1;strokeColor=none;fillColor=none;align=left;verticalAlign=middle;whiteSpace=wrap;rounded=0;fontColor=default;" parent="1" vertex="1">
                    <mxGeometry x="1504" y="450" width="146" height="30" as="geometry"/>
                </mxCell>
                <mxCell id="70" value="&lt;h1&gt;仓库详情&lt;/h1&gt;" style="text;html=1;strokeColor=none;fillColor=none;spacing=5;spacingTop=-20;whiteSpace=wrap;overflow=hidden;rounded=0;fontColor=default;" parent="1" vertex="1">
                    <mxGeometry x="1340" y="830" width="190" height="40" as="geometry"/>
                </mxCell>
                <mxCell id="77" value="" style="group;fontColor=default;" parent="1" vertex="1" connectable="0">
                    <mxGeometry x="1582" y="417" width="50" height="20" as="geometry"/>
                </mxCell>
                <mxCell id="78" value="" style="rounded=1;whiteSpace=wrap;html=1;fontColor=default;" parent="77" vertex="1">
                    <mxGeometry width="50" height="20" as="geometry"/>
                </mxCell>
                <mxCell id="79" value="Public" style="text;html=1;strokeColor=none;fillColor=none;align=center;verticalAlign=middle;whiteSpace=wrap;rounded=0;fontColor=default;" parent="77" vertex="1">
                    <mxGeometry x="15" y="7.5" width="20" height="5" as="geometry"/>
                </mxCell>
                <mxCell id="82" value="" style="group;fontColor=default;" parent="1" vertex="1" connectable="0">
                    <mxGeometry x="1646" y="996" width="50" height="20" as="geometry"/>
                </mxCell>
                <mxCell id="83" value="" style="rounded=1;whiteSpace=wrap;html=1;fontColor=default;" parent="82" vertex="1">
                    <mxGeometry width="50" height="20" as="geometry"/>
                </mxCell>
                <mxCell id="84" value="Public" style="text;html=1;strokeColor=none;fillColor=none;align=center;verticalAlign=middle;whiteSpace=wrap;rounded=0;fontColor=default;" parent="82" vertex="1">
                    <mxGeometry x="15" y="7.5" width="20" height="5" as="geometry"/>
                </mxCell>
                <mxCell id="100" value="分支" style="strokeWidth=1;shadow=0;dashed=0;align=center;html=1;shape=mxgraph.mockup.text.callout;linkText=;textSize=17;textColor=#666666;callDir=NW;callStyle=line;fontSize=14;fontColor=default;align=left;verticalAlign=top;strokeColor=#666666;" parent="1" vertex="1">
                    <mxGeometry x="1190" y="1069" width="320" height="71" as="geometry"/>
                </mxCell>
                <mxCell id="120" value="最后的提交commit内容" style="strokeWidth=1;shadow=0;dashed=0;align=center;html=1;shape=mxgraph.mockup.text.callout;linkText=;textSize=17;textColor=#666666;callDir=NW;callStyle=line;fontSize=14;fontColor=default;align=left;verticalAlign=top;strokeColor=#666666;fillColor=#333333;" parent="1" vertex="1">
                    <mxGeometry x="1120" y="1130" width="460" height="70" as="geometry"/>
                </mxCell>
                <mxCell id="66" value="" style="rounded=0;whiteSpace=wrap;html=1;fontColor=default;" parent="1" vertex="1">
                    <mxGeometry x="1462" y="910" width="768" height="50" as="geometry"/>
                </mxCell>
                <mxCell id="67" value="Search" style="strokeWidth=1;shadow=0;dashed=0;align=center;html=1;shape=mxgraph.mockup.forms.searchBox;strokeColor=#999999;mainText=;strokeColor2=#008cff;fontColor=default;fontSize=17;align=left;spacingLeft=3;" parent="1" vertex="1">
                    <mxGeometry x="1492" y="920" width="150" height="30" as="geometry"/>
                </mxCell>
                <mxCell id="68" value="" style="verticalLabelPosition=bottom;shadow=0;dashed=0;align=center;html=1;verticalAlign=top;strokeWidth=1;shape=mxgraph.mockup.containers.userMale;strokeColor=#666666;strokeColor2=#008cff;fontColor=default;" parent="1" vertex="1">
                    <mxGeometry x="2130" y="920" width="33" height="30" as="geometry"/>
                </mxCell>
                <mxCell id="71" value="&amp;nbsp; &amp;nbsp; &amp;nbsp;Code" style="strokeWidth=1;shadow=0;dashed=0;align=center;html=1;shape=mxgraph.mockup.forms.uRect;fontSize=17;fontColor=default;align=left;spacingLeft=5;strokeColor=#666666;fillColor=#008CFF;" parent="1" vertex="1">
                    <mxGeometry x="1501" y="1080" width="90" height="30" as="geometry"/>
                </mxCell>
                <mxCell id="87" value="这是一个仓库的描述，最多2行文字，……………………………………………………………………………………" style="text;html=1;strokeColor=none;fillColor=none;align=left;verticalAlign=middle;whiteSpace=wrap;rounded=0;fontColor=default;" parent="1" vertex="1">
                    <mxGeometry x="1504" y="1030" width="440" height="30" as="geometry"/>
                </mxCell>
                <mxCell id="88" value="" style="verticalLabelPosition=bottom;shadow=0;dashed=0;align=center;html=1;verticalAlign=top;strokeWidth=1;shape=mxgraph.mockup.graphics.simpleIcon;strokeColor=#999999;fontColor=default;" parent="1" vertex="1">
                    <mxGeometry x="1508" y="1085" width="20" height="20" as="geometry"/>
                </mxCell>
                <mxCell id="91" value="&amp;nbsp; &amp;nbsp; &amp;nbsp; Releases" style="strokeWidth=1;shadow=0;dashed=0;align=center;html=1;shape=mxgraph.mockup.forms.uRect;fontSize=17;fontColor=default;align=left;spacingLeft=5;strokeColor=#008cff;fillColor=#2A2A2A;" parent="1" vertex="1">
                    <mxGeometry x="1591" y="1080" width="140" height="30" as="geometry"/>
                </mxCell>
                <mxCell id="93" value="" style="verticalLabelPosition=bottom;shadow=0;dashed=0;align=center;html=1;verticalAlign=top;strokeWidth=1;shape=mxgraph.mockup.graphics.simpleIcon;strokeColor=#999999;fontColor=default;" parent="1" vertex="1">
                    <mxGeometry x="1600" y="1085" width="20" height="20" as="geometry"/>
                </mxCell>
                <mxCell id="72" value="&amp;nbsp; &amp;nbsp; &amp;nbsp; Pull request" style="strokeWidth=1;shadow=0;dashed=0;align=center;html=1;shape=mxgraph.mockup.forms.uRect;fontSize=17;fontColor=default;align=left;spacingLeft=5;strokeColor=#008cff;fillColor=#2A2A2A;" parent="1" vertex="1">
                    <mxGeometry x="1730" y="1080" width="140" height="30" as="geometry"/>
                </mxCell>
                <mxCell id="89" value="" style="verticalLabelPosition=bottom;shadow=0;dashed=0;align=center;html=1;verticalAlign=top;strokeWidth=1;shape=mxgraph.mockup.graphics.simpleIcon;strokeColor=#999999;fontColor=default;" parent="1" vertex="1">
                    <mxGeometry x="1737" y="1085" width="20" height="20" as="geometry"/>
                </mxCell>
                <mxCell id="73" value="&amp;nbsp; &amp;nbsp; &amp;nbsp; Settings" style="strokeWidth=1;shadow=0;dashed=0;align=center;html=1;shape=mxgraph.mockup.forms.uRect;fontSize=17;fontColor=default;align=left;spacingLeft=5;strokeColor=#666666;" parent="1" vertex="1">
                    <mxGeometry x="2080" y="1080" width="120" height="30" as="geometry"/>
                </mxCell>
                <mxCell id="96" value="" style="group;fontColor=default;" parent="1" vertex="1" connectable="0">
                    <mxGeometry x="2080" y="1080" width="120" height="30" as="geometry"/>
                </mxCell>
                <mxCell id="90" value="" style="verticalLabelPosition=bottom;shadow=0;dashed=0;align=center;html=1;verticalAlign=top;strokeWidth=1;shape=mxgraph.mockup.graphics.simpleIcon;strokeColor=#999999;fontColor=default;" parent="96" vertex="1">
                    <mxGeometry x="9" y="5" width="20" height="20" as="geometry"/>
                </mxCell>
                <mxCell id="97" value="" style="verticalLabelPosition=bottom;shadow=0;dashed=0;align=center;html=1;verticalAlign=top;strokeWidth=1;shape=mxgraph.mockup.markup.line;strokeColor=#999999;fontColor=default;" parent="1" vertex="1">
                    <mxGeometry x="1501" y="1100" width="700" height="20" as="geometry"/>
                </mxCell>
                <mxCell id="98" value="&amp;nbsp; &amp;nbsp; &amp;nbsp;master" style="strokeWidth=1;shadow=0;dashed=0;align=center;html=1;shape=mxgraph.mockup.forms.comboBox;strokeColor=#999999;fillColor=#ddeeff;align=left;fillColor2=#aaddff;mainText=;fontColor=default;fontSize=17;spacingLeft=3;" parent="1" vertex="1">
                    <mxGeometry x="1504" y="1130" width="127" height="20" as="geometry"/>
                </mxCell>
                <mxCell id="99" value="" style="verticalLabelPosition=bottom;shadow=0;dashed=0;align=center;html=1;verticalAlign=top;strokeWidth=1;shape=mxgraph.mockup.graphics.simpleIcon;strokeColor=#999999;fontColor=default;" parent="1" vertex="1">
                    <mxGeometry x="1510" y="1136" width="13" height="10" as="geometry"/>
                </mxCell>
                <mxCell id="103" value="" style="group;fontColor=default;" parent="1" vertex="1" connectable="0">
                    <mxGeometry x="1646" y="1126" width="125" height="30" as="geometry"/>
                </mxCell>
                <mxCell id="101" value="2 Branchs" style="shape=rectangle;strokeColor=none;fillColor=none;linkText=;fontSize=12;fontColor=default;fontStyle=4;html=1;align=center;" parent="103" vertex="1">
                    <mxGeometry width="125" height="30" as="geometry"/>
                </mxCell>
                <mxCell id="102" value="" style="verticalLabelPosition=bottom;shadow=0;dashed=0;align=center;html=1;verticalAlign=top;strokeWidth=1;shape=mxgraph.mockup.graphics.simpleIcon;strokeColor=#999999;fontColor=default;" parent="103" vertex="1">
                    <mxGeometry x="8" y="5" width="20" height="20" as="geometry"/>
                </mxCell>
                <mxCell id="108" value="" style="group;fontColor=default;" parent="1" vertex="1" connectable="0">
                    <mxGeometry x="1745" y="1126" width="106" height="30" as="geometry"/>
                </mxCell>
                <mxCell id="106" value="0 tags" style="shape=rectangle;strokeColor=none;fillColor=none;linkText=;fontSize=12;fontColor=default;fontStyle=4;html=1;align=center;" parent="108" vertex="1">
                    <mxGeometry width="106" height="30" as="geometry"/>
                </mxCell>
                <mxCell id="107" value="" style="verticalLabelPosition=bottom;shadow=0;dashed=0;align=center;html=1;verticalAlign=top;strokeWidth=1;shape=mxgraph.mockup.graphics.simpleIcon;strokeColor=#999999;fontColor=default;" parent="108" vertex="1">
                    <mxGeometry x="8" y="5" width="20" height="20" as="geometry"/>
                </mxCell>
                <mxCell id="109" value="Add file" style="strokeWidth=1;shadow=0;dashed=0;align=center;html=1;shape=mxgraph.mockup.buttons.button;strokeColor=#666666;fontColor=default;mainText=;buttonStyle=round;fontSize=12;fontStyle=1;fillColor=#008cff;whiteSpace=wrap;" parent="1" vertex="1">
                    <mxGeometry x="2085.5" y="1130" width="109" height="30" as="geometry"/>
                </mxCell>
                <mxCell id="110" value="" style="verticalLabelPosition=bottom;shadow=0;dashed=0;align=center;html=1;verticalAlign=top;strokeWidth=1;shape=mxgraph.mockup.graphics.simpleIcon;strokeColor=#999999;fontColor=default;" parent="1" vertex="1">
                    <mxGeometry x="2094" y="1135" width="20" height="20" as="geometry"/>
                </mxCell>
                <mxCell id="124" value="" style="group;fontColor=default;" parent="1" vertex="1" connectable="0">
                    <mxGeometry x="1342" y="910" width="120" height="760" as="geometry"/>
                </mxCell>
                <mxCell id="55" value="" style="strokeWidth=1;shadow=0;dashed=0;align=center;html=1;shape=mxgraph.mockup.containers.rrect;rSize=0;strokeColor=#666666;container=0;fontColor=default;" parent="124" vertex="1">
                    <mxGeometry width="120" height="760" as="geometry"/>
                </mxCell>
                <mxCell id="56" value="" style="verticalLabelPosition=bottom;shadow=0;dashed=0;align=center;html=1;verticalAlign=top;strokeWidth=1;shape=mxgraph.mockup.graphics.simpleIcon;strokeColor=#999999;fontColor=default;" parent="124" vertex="1">
                    <mxGeometry x="35" y="23.01886792452831" width="50" height="57.54716981132076" as="geometry"/>
                </mxCell>
                <mxCell id="57" value="" style="group;fontColor=default;" parent="124" vertex="1" connectable="0">
                    <mxGeometry y="115.09433962264143" width="120" height="92.0754716981132" as="geometry"/>
                </mxCell>
                <mxCell id="58" value="&lt;br&gt;&lt;br&gt;Group 1" style="strokeColor=inherit;fillColor=inherit;gradientColor=inherit;strokeWidth=1;shadow=0;dashed=0;align=center;html=1;shape=mxgraph.mockup.containers.rrect;rSize=0;fontSize=17;fontColor=default;fontStyle=1;resizeWidth=1;" parent="57" vertex="1">
                    <mxGeometry width="120" height="80" relative="1" as="geometry">
                        <mxPoint as="offset"/>
                    </mxGeometry>
                </mxCell>
                <mxCell id="59" value="" style="verticalLabelPosition=bottom;shadow=0;dashed=0;align=center;html=1;verticalAlign=top;strokeWidth=1;shape=mxgraph.mockup.graphics.simpleIcon;strokeColor=#999999;fontColor=default;" parent="57" vertex="1">
                    <mxGeometry x="47.5" y="23.0188679245283" width="25" height="23.0188679245283" as="geometry"/>
                </mxCell>
                <mxCell id="60" value="" style="group;fontColor=default;" parent="124" vertex="1" connectable="0">
                    <mxGeometry y="207.16981132075466" width="120" height="92.0754716981132" as="geometry"/>
                </mxCell>
                <mxCell id="61" value="&lt;br&gt;&lt;br&gt;Group 1" style="strokeColor=inherit;fillColor=inherit;gradientColor=inherit;strokeWidth=1;shadow=0;dashed=0;align=center;html=1;shape=mxgraph.mockup.containers.rrect;rSize=0;fontSize=17;fontColor=default;fontStyle=1;resizeWidth=1;" parent="60" vertex="1">
                    <mxGeometry width="120" height="80" relative="1" as="geometry">
                        <mxPoint as="offset"/>
                    </mxGeometry>
                </mxCell>
                <mxCell id="62" value="" style="verticalLabelPosition=bottom;shadow=0;dashed=0;align=center;html=1;verticalAlign=top;strokeWidth=1;shape=mxgraph.mockup.graphics.simpleIcon;strokeColor=#999999;fontColor=default;" parent="60" vertex="1">
                    <mxGeometry x="47.5" y="23.0188679245283" width="25" height="23.0188679245283" as="geometry"/>
                </mxCell>
                <mxCell id="63" value="" style="group;fontColor=default;" parent="124" vertex="1" connectable="0">
                    <mxGeometry y="310.7547169811321" width="120" height="92.0754716981132" as="geometry"/>
                </mxCell>
                <mxCell id="64" value="&lt;br&gt;&lt;br&gt;Group 1" style="strokeColor=inherit;fillColor=inherit;gradientColor=inherit;strokeWidth=1;shadow=0;dashed=0;align=center;html=1;shape=mxgraph.mockup.containers.rrect;rSize=0;fontSize=17;fontColor=default;fontStyle=1;resizeWidth=1;" parent="63" vertex="1">
                    <mxGeometry width="120" height="80" relative="1" as="geometry">
                        <mxPoint as="offset"/>
                    </mxGeometry>
                </mxCell>
                <mxCell id="65" value="" style="verticalLabelPosition=bottom;shadow=0;dashed=0;align=center;html=1;verticalAlign=top;strokeWidth=1;shape=mxgraph.mockup.graphics.simpleIcon;strokeColor=#999999;fontColor=default;" parent="63" vertex="1">
                    <mxGeometry x="47.5" y="23.0188679245283" width="25" height="23.0188679245283" as="geometry"/>
                </mxCell>
                <mxCell id="113" value="" style="rounded=0;whiteSpace=wrap;html=1;fontSize=14;fontColor=default;strokeWidth=1;" parent="1" vertex="1">
                    <mxGeometry x="1500" y="1185" width="701" height="195" as="geometry"/>
                </mxCell>
                <mxCell id="114" value="" style="rounded=0;whiteSpace=wrap;html=1;fontSize=14;fontColor=default;strokeWidth=1;fillColor=#333333;" parent="1" vertex="1">
                    <mxGeometry x="1500" y="1185" width="701" height="37.86" as="geometry"/>
                </mxCell>
                <mxCell id="116" value="" style="verticalLabelPosition=bottom;shadow=0;dashed=0;align=center;html=1;verticalAlign=top;strokeWidth=1;shape=mxgraph.mockup.graphics.simpleIcon;strokeColor=#999999;fontColor=default;" parent="1" vertex="1">
                    <mxGeometry x="1510" y="1195.515873015873" width="20" height="16.825396825396826" as="geometry"/>
                </mxCell>
                <mxCell id="117" value="moli" style="text;html=1;strokeColor=none;fillColor=none;align=center;verticalAlign=middle;whiteSpace=wrap;rounded=0;fontSize=14;fontColor=default;" parent="1" vertex="1">
                    <mxGeometry x="1520" y="1191.3095238095239" width="60" height="25.238095238095237" as="geometry"/>
                </mxCell>
                <mxCell id="118" value="last commit&amp;nbsp;&lt;span style=&quot;font-family: &amp;quot;helvetica&amp;quot; , &amp;quot;lucida grande&amp;quot; , &amp;quot;lucida&amp;quot; , &amp;quot;verdana&amp;quot; , sans-serif ; font-size: 13.3333px&quot;&gt;comment&lt;/span&gt;" style="text;html=1;strokeColor=none;fillColor=none;align=center;verticalAlign=middle;whiteSpace=wrap;rounded=0;fontSize=14;fontColor=default;" parent="1" vertex="1">
                    <mxGeometry x="1560" y="1191.3095238095239" width="170" height="25.238095238095237" as="geometry"/>
                </mxCell>
                <mxCell id="121" value="" style="verticalLabelPosition=bottom;shadow=0;dashed=0;align=center;html=1;verticalAlign=top;strokeWidth=1;shape=mxgraph.mockup.misc.mail2;strokeColor=#999999;fontSize=14;fontColor=default;fillColor=#333333;" parent="1" vertex="1">
                    <mxGeometry x="2100" y="1194.6746031746031" width="20" height="15.563492063492063" as="geometry"/>
                </mxCell>
                <mxCell id="122" value="hash 2022-03-10 12:12" style="text;html=1;strokeColor=none;fillColor=none;align=center;verticalAlign=middle;whiteSpace=wrap;rounded=0;fontSize=14;fontColor=default;" parent="1" vertex="1">
                    <mxGeometry x="1930" y="1191.3095238095239" width="170" height="25.238095238095237" as="geometry"/>
                </mxCell>
                <mxCell id="123" value="12 commits" style="text;html=1;strokeColor=none;fillColor=none;align=left;verticalAlign=middle;whiteSpace=wrap;rounded=0;fontSize=14;fontColor=default;" parent="1" vertex="1">
                    <mxGeometry x="2121" y="1191.3095238095239" width="80" height="25.238095238095237" as="geometry"/>
                </mxCell>
                <mxCell id="125" value="" style="verticalLabelPosition=bottom;shadow=0;dashed=0;align=center;html=1;verticalAlign=top;strokeWidth=1;shape=mxgraph.mockup.graphics.simpleIcon;strokeColor=#999999;fontSize=14;fontColor=default;fillColor=#333333;" parent="1" vertex="1">
                    <mxGeometry x="1520" y="1240" width="20" height="15" as="geometry"/>
                </mxCell>
                <mxCell id="126" value="README.md" style="text;html=1;strokeColor=none;fillColor=none;align=left;verticalAlign=middle;whiteSpace=wrap;rounded=0;fontSize=12;fontColor=default;" parent="1" vertex="1">
                    <mxGeometry x="1550" y="1232.5" width="120" height="30" as="geometry"/>
                </mxCell>
                <mxCell id="127" value="" style="verticalLabelPosition=bottom;shadow=0;dashed=0;align=center;html=1;verticalAlign=top;strokeWidth=1;shape=mxgraph.mockup.markup.line;strokeColor=#999999;fontSize=12;fontColor=default;fillColor=#333333;" parent="1" vertex="1">
                    <mxGeometry x="1501" y="1262.5" width="699" height="20" as="geometry"/>
                </mxCell>
                <mxCell id="128" value="init commit" style="text;html=1;strokeColor=none;fillColor=none;align=center;verticalAlign=middle;whiteSpace=wrap;rounded=0;fontSize=12;fontColor=default;" parent="1" vertex="1">
                    <mxGeometry x="1790" y="1232.5" width="110" height="30" as="geometry"/>
                </mxCell>
                <mxCell id="129" value="11 days ago" style="text;html=1;strokeColor=none;fillColor=none;align=center;verticalAlign=middle;whiteSpace=wrap;rounded=0;fontSize=12;fontColor=default;" parent="1" vertex="1">
                    <mxGeometry x="2100" y="1232.5" width="81" height="30" as="geometry"/>
                </mxCell>
                <mxCell id="130" value="" style="rounded=0;whiteSpace=wrap;html=1;fontSize=14;fontColor=default;strokeWidth=1;" parent="1" vertex="1">
                    <mxGeometry x="1501" y="1410" width="701" height="195" as="geometry"/>
                </mxCell>
                <mxCell id="131" value="" style="rounded=0;whiteSpace=wrap;html=1;fontSize=14;fontColor=default;strokeWidth=1;fillColor=#333333;" parent="1" vertex="1">
                    <mxGeometry x="1501" y="1410" width="701" height="37.86" as="geometry"/>
                </mxCell>
                <mxCell id="132" value="README.md" style="text;html=1;strokeColor=none;fillColor=none;align=left;verticalAlign=middle;whiteSpace=wrap;rounded=0;fontSize=12;fontColor=default;" parent="1" vertex="1">
                    <mxGeometry x="1510" y="1413.93" width="80" height="30" as="geometry"/>
                </mxCell>
                <mxCell id="133" value="Hello world" style="text;html=1;strokeColor=none;fillColor=none;align=left;verticalAlign=middle;whiteSpace=wrap;rounded=0;fontSize=12;fontColor=default;" parent="1" vertex="1">
                    <mxGeometry x="1520" y="1470" width="109" height="30" as="geometry"/>
                </mxCell>
                <mxCell id="74" value="molizz/growerlab" style="shape=rectangle;strokeColor=none;fillColor=none;linkText=;fontSize=17;fontColor=default;fontStyle=4;html=1;align=left;" parent="1" vertex="1">
                    <mxGeometry x="1504" y="991" width="150" height="30" as="geometry"/>
                </mxCell>
            </root>
        </mxGraphModel>
    </diagram>
</mxfile>